{"glyphs":{"0":{"ha":494,"x_min":0,"x_max":0,"o":"m 285 714 b 494 431 386 714 494 636 b 207 0 494 240 390 0 b 33 235 111 0 33 68 l 33 247 b 0 296 15 251 0 269 b 285 714 0 544 133 714 m 211 82 b 407 442 325 82 407 274 b 281 633 407 571 346 633 b 147 532 228 633 182 592 b 164 479 163 524 174 506 b 118 238 132 389 118 304 b 211 82 118 119 165 82 "},"1":{"ha":589,"x_min":0,"x_max":0,"o":"m 535 110 b 536 26 608 114 604 31 b 267 10 424 21 328 18 b 115 -7 215 3 144 -7 b 57 24 81 -7 57 -1 b 94 67 57 46 74 57 b 275 131 139 88 243 119 b 351 558 294 254 315 378 b 78 267 278 476 168 353 b 36 247 63 253 49 247 b 15 324 3 247 -14 292 b 332 661 119 436 235 558 b 415 715 357 689 386 715 b 447 638 438 717 457 699 b 357 100 401 344 378 225 b 535 110 411 103 474 107 "},"2":{"ha":546,"x_min":0,"x_max":0,"o":"m 494 88 b 496 3 567 90 560 7 b 49 -28 313 -6 114 -24 b 0 3 19 -29 0 -15 b 29 47 0 17 6 33 b 449 478 239 169 449 310 b 296 631 449 578 385 631 b 106 461 207 631 106 571 b 139 351 106 421 114 392 b 147 322 146 340 147 331 b 65 313 147 285 89 276 b 21 454 35 357 21 400 b 296 711 19 618 149 711 b 533 479 429 711 533 626 b 211 68 533 315 400 169 b 494 88 286 76 432 85 "},"3":{"ha":532,"x_min":0,"x_max":0,"o":"m 336 454 b 532 242 492 454 532 336 b 239 -76 532 129 451 -61 b 0 139 89 -87 0 0 b 32 282 0 188 7 238 b 88 321 46 308 69 321 b 111 251 114 321 133 296 b 83 149 99 228 83 189 b 243 4 83 29 164 -7 b 447 242 368 22 447 135 b 221 374 447 331 413 404 b 178 406 207 372 178 378 b 224 469 178 422 186 435 b 385 625 264 507 319 561 b 129 608 317 619 185 611 b 79 647 97 606 79 625 b 126 692 79 668 94 690 b 442 713 267 700 335 706 b 510 681 481 715 503 708 b 486 621 514 664 506 640 b 326 454 450 582 390 517 "},"4":{"ha":601,"x_min":0,"x_max":0,"o":"m 550 261 b 601 225 585 264 601 246 b 553 175 601 204 585 179 l 468 167 b 435 -32 456 92 443 21 b 388 -79 429 -64 408 -79 b 350 -29 365 -79 346 -61 b 379 158 358 26 369 94 b 53 133 272 150 139 139 b 0 176 18 131 0 147 b 28 247 0 196 10 221 b 393 758 108 360 294 619 b 438 785 404 775 421 785 b 463 707 469 785 497 757 b 114 221 375 582 214 360 b 394 249 160 226 271 239 l 415 372 b 464 422 421 406 442 422 b 500 367 485 422 506 404 l 482 256 b 550 261 504 258 528 260 "},"5":{"ha":532,"x_min":0,"x_max":0,"o":"m 476 625 b 204 610 389 619 297 615 b 182 469 197 572 190 515 b 293 496 204 483 246 496 b 510 260 418 496 510 399 b 200 -83 510 51 361 -83 b 22 258 0 -82 -29 108 b 104 233 44 325 125 299 b 203 0 63 101 81 0 b 426 256 314 0 426 101 b 279 417 426 346 376 417 b 185 390 249 417 217 407 b 94 440 114 351 89 393 b 124 643 106 529 115 593 b 181 694 129 674 142 692 b 478 710 257 699 301 701 b 476 625 544 713 557 629 "},"6":{"ha":524,"x_min":0,"x_max":0,"o":"m 357 840 b 397 768 432 871 463 793 b 85 304 194 690 85 497 b 213 71 85 154 133 71 b 439 418 357 71 439 276 b 365 542 439 507 406 542 b 228 333 297 542 242 431 b 144 344 219 276 139 268 b 374 624 154 479 250 624 b 524 422 460 624 524 549 b 214 -10 524 236 415 -10 b 0 315 65 -10 0 118 b 357 840 0 494 100 736 "},"7":{"ha":489,"x_min":0,"x_max":0,"o":"m 431 254 b 478 214 461 256 478 235 b 433 169 476 192 461 169 l 253 169 b 165 -44 225 107 196 39 b 118 -81 157 -68 139 -81 b 86 -18 92 -81 74 -61 b 163 168 99 25 128 92 l 56 168 b 13 210 29 167 14 188 b 58 251 14 231 28 251 l 201 253 b 389 618 264 382 336 522 b 58 611 281 614 172 611 b 0 651 15 611 0 629 b 51 694 0 671 13 694 b 410 701 207 694 260 696 b 489 651 463 703 489 690 b 467 583 489 632 481 611 b 292 254 399 454 346 361 "},"8":{"ha":496,"x_min":0,"x_max":0,"o":"m 496 615 b 311 350 496 492 404 417 b 378 181 350 307 378 254 b 190 -11 378 50 281 -11 b 35 144 115 -11 35 29 b 176 358 35 243 100 304 b 0 599 94 421 0 482 b 257 850 0 713 94 851 b 496 615 379 850 496 771 m 249 407 b 411 625 333 464 411 524 b 264 767 411 711 340 767 b 85 594 158 767 85 694 b 249 407 85 515 171 469 m 294 183 b 240 301 294 231 272 268 b 119 143 174 254 119 206 b 194 69 119 86 156 69 b 294 183 254 69 294 118 "},"9":{"ha":494,"x_min":0,"x_max":0,"o":"m 283 713 b 494 400 432 713 494 597 b 167 -142 494 221 406 -53 b 126 -69 90 -169 61 -94 b 308 74 204 -39 264 11 b 201 49 276 57 240 49 b 0 300 100 49 0 108 b 283 713 0 471 82 713 m 408 371 b 410 411 410 383 410 397 b 285 632 410 561 364 632 b 83 303 140 632 83 422 b 215 131 83 140 174 131 b 408 371 332 132 394 272 "},"A":{"ha":1096,"x_min":0,"x_max":0,"o":"m 1040 565 b 1065 492 1090 588 1122 519 b 799 400 978 449 885 419 b 779 49 792 275 785 150 b 738 1 778 17 760 1 b 694 51 714 1 694 19 b 508 342 694 136 624 269 b 167 -6 378 90 290 -6 b 0 149 72 -6 0 42 b 94 304 0 213 36 304 b 117 235 126 304 142 271 b 86 149 94 203 86 183 b 169 75 86 97 122 75 b 432 378 251 75 332 190 b 371 392 413 385 392 389 b 278 447 328 397 278 408 b 336 479 278 472 304 486 b 474 457 382 471 426 463 l 511 531 b 706 921 588 683 682 878 b 771 961 722 951 750 961 b 831 879 803 961 835 938 l 804 479 b 1040 565 874 497 951 525 m 564 450 b 718 461 611 449 663 451 b 751 840 728 590 739 733 b 564 450 714 758 633 590 m 713 382 b 606 368 672 375 636 371 b 704 250 644 339 682 296 "},"Ą":{"ha":1096,"x_min":0,"x_max":0,"o":"m 1040 565 b 1065 492 1090 588 1122 519 b 800 396 978 449 885 417 b 776 96 792 294 785 190 b 894 194 799 108 838 136 b 928 213 907 207 921 213 b 956 147 969 213 969 171 b 890 64 940 122 893 71 b 879 -128 842 -49 842 -128 b 969 -44 894 -128 929 -119 b 994 -29 975 -35 985 -29 b 1035 -71 1011 -29 1035 -42 b 1022 -112 1035 -82 1031 -97 b 879 -206 993 -164 933 -206 b 772 -89 792 -206 772 -131 b 792 21 772 -36 783 -1 b 732 1 771 11 746 1 b 694 51 710 1 693 15 b 714 379 699 119 706 244 b 588 367 665 371 622 367 b 522 369 565 367 544 368 l 517 357 b 167 -6 382 94 293 -6 b 0 149 72 -6 0 42 b 94 304 0 213 36 304 b 117 235 126 304 142 271 b 86 149 94 203 86 183 b 169 75 86 97 122 75 b 433 379 251 75 333 190 b 371 392 413 383 392 386 b 278 447 328 401 278 408 b 336 479 278 472 304 486 b 474 457 382 471 426 463 l 510 531 b 697 904 586 686 669 861 b 775 954 718 938 742 960 b 831 879 808 949 833 932 b 806 479 826 796 817 646 b 1040 565 875 497 953 525 m 564 450 b 721 461 613 449 664 451 b 751 840 731 604 742 749 b 564 450 714 758 633 590 "},"B":{"ha":813,"x_min":0,"x_max":0,"o":"m 543 906 b 813 699 739 906 815 799 b 604 431 810 590 744 494 b 725 260 668 410 725 349 b 415 -1 725 117 593 -1 b 260 82 285 -1 243 44 b 322 94 265 94 285 110 b 413 76 346 85 379 76 b 639 261 549 76 639 164 b 315 381 639 388 451 381 b 272 415 286 381 272 399 b 315 456 272 440 285 456 b 726 699 538 456 726 543 b 554 828 726 792 629 828 b 286 761 469 828 376 807 b 169 50 247 524 196 218 b 122 1 167 29 157 1 b 85 60 83 1 82 35 b 190 703 104 189 150 458 b 83 604 153 675 117 642 b 38 581 68 586 51 581 b 0 618 17 581 0 596 b 21 660 0 631 8 646 b 208 813 82 726 146 775 l 225 914 b 274 963 229 947 249 963 b 310 910 294 963 315 944 l 301 857 b 543 906 392 893 475 906 "},"C":{"ha":635,"x_min":0,"x_max":0,"o":"m 351 957 b 507 606 525 958 557 747 b 422 622 488 550 404 561 b 356 876 467 776 421 876 b 89 278 203 876 89 619 b 221 74 89 225 106 74 b 553 338 319 74 428 119 b 626 296 586 394 658 358 b 219 -6 522 88 372 -6 b 0 300 31 -6 0 186 b 351 957 0 582 107 956 "},"Ć":{"ha":633,"x_min":0,"x_max":0,"o":"m 429 1154 b 458 1088 456 1150 474 1121 b 392 953 438 1043 429 1024 b 343 925 381 931 360 922 b 318 988 321 929 303 954 b 378 1124 339 1036 353 1069 b 429 1154 390 1149 411 1157 m 336 865 b 506 514 525 867 560 656 b 421 531 486 458 403 469 b 340 785 475 685 419 785 b 88 303 196 785 88 542 b 219 74 88 225 104 74 b 551 338 311 74 426 119 b 625 296 585 394 657 358 b 218 -6 521 88 378 -6 b 0 288 29 -6 0 189 b 336 865 0 558 119 864 "},"D":{"ha":1133,"x_min":0,"x_max":0,"o":"m 1079 451 b 1106 382 1131 475 1157 411 b 944 317 1057 354 1001 333 b 951 239 949 290 951 264 b 667 -33 951 68 836 -33 b 282 135 506 -35 378 58 l 269 97 b 140 1 240 14 190 1 b 0 160 68 1 0 65 b 121 310 0 232 40 308 b 236 271 160 310 197 294 b 271 401 247 311 260 356 b 132 647 193 461 139 543 b 333 861 124 771 200 860 b 381 860 349 861 365 861 l 394 921 b 476 901 407 976 490 964 l 463 843 b 922 396 671 785 854 592 b 1079 451 979 411 1032 431 m 217 675 b 294 496 217 607 246 546 b 363 783 318 590 342 690 l 351 783 b 217 675 276 783 217 751 m 838 375 b 444 767 772 549 600 714 b 365 439 421 661 392 546 b 669 358 447 388 556 358 b 838 375 722 358 781 365 m 864 240 b 858 297 864 260 861 278 b 676 281 796 286 732 281 b 343 356 561 281 442 306 b 307 221 331 307 318 261 b 675 44 407 143 521 44 b 864 240 789 44 864 118 m 214 190 b 129 233 179 217 151 235 b 82 164 101 233 82 204 b 144 82 82 119 103 82 b 197 140 165 82 183 100 "},"E":{"ha":735,"x_min":0,"x_max":0,"o":"m 656 406 b 726 361 686 460 761 429 b 228 -37 568 53 383 -37 b 0 144 58 -37 0 60 b 92 376 0 231 36 315 b 57 547 71 418 57 475 b 347 956 57 706 156 956 b 510 747 436 956 510 900 b 478 574 510 672 493 611 b 431 540 471 551 450 540 b 394 601 404 540 382 560 b 422 749 408 638 422 689 b 340 874 422 846 381 874 b 146 571 249 874 153 714 b 163 435 143 513 150 468 b 293 472 201 458 246 472 b 418 381 371 472 418 428 b 269 265 418 319 353 265 b 144 310 228 265 182 278 b 88 164 108 265 88 213 b 224 42 88 94 122 42 b 656 406 351 42 494 117 m 336 376 b 290 396 336 386 324 396 b 208 368 274 396 242 388 b 276 344 231 351 254 344 b 336 376 311 344 336 361 "},"Ę":{"ha":510,"x_min":0,"x_max":0,"o":"m 457 -104 b 494 -149 476 -104 494 -119 b 483 -187 494 -160 492 -172 b 333 -278 454 -242 388 -278 b 225 -164 254 -278 225 -225 b 258 -32 225 -131 239 -75 b 228 -35 249 -33 238 -35 b 0 144 58 -35 0 60 b 92 376 0 231 36 315 b 57 547 71 418 57 475 b 347 956 57 706 156 956 b 510 747 436 956 510 900 b 478 574 510 672 493 611 b 431 540 471 551 450 540 b 394 601 404 540 382 560 b 422 749 408 638 422 689 b 340 874 422 846 381 874 b 146 571 249 874 153 714 b 163 435 143 513 150 468 b 293 472 201 458 246 472 b 418 381 371 472 418 428 b 269 265 418 319 353 265 b 144 310 228 265 182 278 b 88 164 108 265 88 213 b 224 42 88 94 122 42 b 310 54 254 42 282 46 b 408 160 347 103 390 146 b 482 129 435 181 482 171 b 371 -10 482 72 413 31 b 336 -200 325 -53 274 -200 b 429 -119 351 -200 389 -194 b 457 -104 435 -110 446 -104 m 336 376 b 290 396 336 386 324 396 b 208 368 274 396 242 388 b 276 344 231 351 254 344 b 336 376 311 344 336 361 "},"F":{"ha":1018,"x_min":0,"x_max":0,"o":"m 938 925 b 1001 871 992 972 1046 910 b 624 788 886 769 757 768 b 542 350 608 714 576 529 l 788 363 b 832 326 811 364 832 350 b 793 285 832 307 818 288 b 526 271 750 282 649 276 b 481 44 510 185 494 106 b 438 1 472 13 456 1 b 396 58 413 1 388 19 b 438 267 411 133 425 203 l 422 267 b 365 306 386 265 365 275 b 401 342 365 313 369 339 l 453 344 b 542 801 489 533 514 676 b 268 839 451 819 358 839 b 88 728 154 839 88 801 b 311 694 88 642 240 643 b 378 674 344 719 378 707 b 342 619 378 653 365 636 b 0 725 254 558 -1 535 b 264 919 1 876 129 919 b 938 925 519 919 767 776 "},"G":{"ha":618,"x_min":0,"x_max":0,"o":"m 574 399 b 618 363 597 400 618 386 b 579 321 618 343 604 324 l 513 317 b 499 260 510 299 504 278 b 207 0 465 144 365 0 b 0 263 29 0 0 161 b 392 958 0 642 171 958 b 592 714 507 958 592 869 b 524 554 592 646 575 554 b 489 596 494 554 485 572 b 503 706 497 644 503 689 b 392 879 504 835 449 879 b 89 261 206 879 88 539 b 201 78 89 132 142 78 b 424 286 290 78 371 144 l 433 311 b 265 303 386 308 329 306 b 208 342 229 301 208 311 b 244 378 208 349 213 375 b 574 399 322 383 410 390 "},"H":{"ha":893,"x_min":0,"x_max":0,"o":"m 854 957 b 890 894 890 957 897 922 b 728 60 804 575 758 315 b 678 0 722 13 701 0 b 640 49 657 0 636 15 b 696 446 649 114 663 249 b 404 249 619 361 511 290 l 401 228 b 379 54 389 132 382 72 b 332 1 372 7 350 1 b 292 54 313 1 289 11 b 313 219 294 83 300 129 b 214 207 278 211 244 207 b 0 468 83 207 0 286 b 153 688 0 617 71 686 b 356 504 247 689 319 600 b 451 931 385 660 426 853 b 532 892 465 974 550 971 b 418 336 472 636 439 461 b 589 453 478 365 538 404 b 806 910 686 543 714 560 b 854 957 815 947 838 957 m 85 453 b 222 285 85 344 139 285 b 317 299 251 285 283 289 b 150 610 314 464 215 610 b 85 453 106 610 85 536 "},"I":{"ha":454,"x_min":0,"x_max":0,"o":"m 394 961 b 436 922 418 961 438 946 b 394 883 435 903 419 885 l 338 883 b 200 69 281 618 224 274 l 258 71 b 301 31 283 69 303 54 b 260 -8 300 11 285 -7 b 54 -8 217 -10 171 -8 b 0 33 18 -8 -3 3 b 39 67 0 40 7 65 b 113 68 65 68 86 68 b 249 883 118 164 206 678 l 189 883 b 135 926 153 885 132 896 b 174 960 135 933 142 960 b 394 961 240 961 254 963 "},"J":{"ha":899,"x_min":0,"x_max":0,"o":"m 853 461 b 899 418 882 457 899 440 b 843 379 899 399 885 376 b 665 393 785 383 725 390 b 200 -171 603 125 469 -171 b 0 46 75 -171 0 -68 b 594 476 0 304 281 468 b 631 794 619 604 631 724 b 551 869 631 843 615 869 b 231 819 468 869 326 853 b 160 847 188 804 160 822 b 204 894 160 865 172 882 b 567 951 283 928 469 951 b 718 793 694 951 718 881 b 683 475 718 736 710 614 b 853 461 736 474 793 469 m 211 -92 b 576 396 406 -92 518 154 b 89 49 350 389 89 253 b 211 -92 89 -24 125 -92 "},"K":{"ha":754,"x_min":0,"x_max":0,"o":"m 678 410 b 751 363 696 456 782 450 b 442 1 656 88 547 1 b 269 268 339 1 272 131 b 136 54 228 201 183 121 b 57 1 104 11 81 1 b 0 97 6 1 0 47 b 161 921 0 251 68 624 b 244 893 181 983 267 969 b 82 126 128 486 99 261 b 532 857 146 213 319 492 b 607 810 563 908 646 879 b 340 364 507 629 340 372 b 446 81 340 308 369 81 b 678 410 501 81 575 140 "},"L":{"ha":899,"x_min":0,"x_max":0,"o":"m 815 301 b 893 268 840 367 918 339 b 569 -43 858 168 771 -43 b 196 51 433 -43 238 44 b 90 29 185 53 136 29 b 0 94 17 28 0 65 b 85 169 0 140 39 169 b 149 163 106 169 128 167 b 246 444 183 253 215 350 b 158 467 218 450 189 457 b 117 514 129 475 117 496 b 181 547 117 539 140 561 b 271 522 211 538 242 529 b 394 865 314 656 354 778 b 521 957 424 929 472 957 b 671 726 617 957 671 849 b 369 432 671 549 561 432 l 335 433 b 289 294 319 386 304 340 b 233 138 258 207 246 171 b 582 39 339 97 457 39 b 815 301 692 39 769 179 m 521 876 b 360 513 474 876 421 708 l 371 513 b 583 738 514 513 583 593 b 521 876 583 808 556 876 "},"Ł":{"ha":897,"x_min":0,"x_max":0,"o":"m 815 301 b 893 268 842 371 915 329 b 569 -43 860 181 782 -43 b 196 51 433 -43 238 44 b 90 29 185 53 136 29 b 0 94 17 28 0 65 b 85 169 0 140 39 169 b 147 163 106 169 126 167 b 213 343 169 222 192 283 b 110 306 175 329 140 317 b 47 338 69 292 47 314 b 79 379 47 357 58 372 b 246 442 149 404 201 424 b 403 900 303 603 354 761 b 450 943 417 939 433 943 b 482 864 476 943 500 917 l 351 485 b 519 563 403 508 450 531 b 583 533 560 581 583 558 b 560 493 583 518 575 501 b 317 385 500 461 408 422 l 232 138 b 582 39 338 99 456 39 b 815 301 686 39 758 156 "},"M":{"ha":1360,"x_min":0,"x_max":0,"o":"m 1267 347 b 1344 326 1282 408 1363 392 b 1056 4 1283 100 1189 4 b 896 275 892 4 896 181 b 942 631 896 363 918 510 b 703 135 850 428 754 235 b 646 81 682 93 665 81 b 608 138 626 81 606 92 b 643 694 614 249 621 490 b 161 1 524 342 374 1 b 0 164 49 1 0 69 b 40 332 0 214 14 272 b 85 365 50 354 68 365 b 115 292 111 365 135 338 b 85 169 94 242 85 200 b 167 82 85 108 118 82 b 631 913 297 82 458 365 b 692 956 638 936 660 956 b 742 879 721 956 746 933 b 701 315 732 714 714 504 b 978 893 793 503 928 786 b 1033 932 989 918 1013 932 b 1076 851 1064 932 1089 906 b 983 258 1017 593 983 390 b 1060 83 983 138 1001 83 b 1267 347 1139 83 1224 164 "},"N":{"ha":1149,"x_min":0,"x_max":0,"o":"m 1067 335 b 1142 292 1093 397 1174 368 b 831 -4 1054 85 944 -3 b 688 154 733 -4 688 63 b 747 744 688 340 814 744 b 364 58 689 744 458 474 b 314 3 356 21 336 3 b 275 69 285 3 265 24 b 394 875 313 240 468 875 b 83 381 317 875 140 592 b 3 407 65 313 -15 344 b 403 957 83 688 271 957 b 501 828 482 957 501 874 b 453 511 501 740 489 669 b 758 826 558 715 674 826 b 854 690 821 826 853 782 b 775 168 856 571 775 297 b 833 74 775 93 794 74 b 1067 335 890 75 985 142 "},"Ń":{"ha":1149,"x_min":0,"x_max":0,"o":"m 686 901 b 661 964 664 906 646 931 b 721 1100 682 1013 696 1046 b 772 1131 733 1125 754 1133 b 801 1064 799 1126 817 1097 b 735 929 781 1019 772 1000 b 686 901 724 907 703 899 m 1067 335 b 1142 292 1093 397 1174 368 b 831 -4 1054 85 944 -3 b 688 154 733 -4 688 63 b 747 744 688 340 814 744 b 364 58 689 744 458 474 b 314 3 356 21 336 3 b 275 69 285 3 265 24 b 394 875 313 240 468 875 b 83 381 317 875 140 592 b 3 407 65 313 -15 344 b 403 957 83 688 271 957 b 501 828 482 957 501 874 b 453 511 501 740 489 669 b 758 826 558 715 674 826 b 854 690 821 826 853 782 b 775 168 856 571 775 297 b 833 74 775 93 794 74 b 1067 335 890 75 985 142 "},"O":{"ha":800,"x_min":0,"x_max":0,"o":"m 728 469 b 774 403 797 515 824 435 b 546 297 704 358 629 321 b 225 0 490 133 386 0 b 0 283 51 0 0 143 b 39 481 0 357 17 424 b 36 522 38 494 36 508 b 343 958 32 742 154 958 b 594 601 522 958 594 775 b 571 389 594 533 586 460 b 728 469 621 407 674 433 m 342 879 b 122 532 201 879 121 696 b 347 351 122 410 207 351 b 475 363 388 351 429 354 b 507 583 497 439 507 517 b 342 879 506 775 438 879 m 225 79 b 444 276 324 79 397 167 b 350 271 414 272 383 271 b 94 358 246 271 151 294 b 88 294 90 336 88 315 b 225 79 88 171 122 79 "},"Ó":{"ha":801,"x_min":0,"x_max":0,"o":"m 347 925 b 322 988 325 929 307 954 b 382 1124 343 1036 357 1069 b 433 1154 394 1149 415 1157 b 463 1088 460 1150 478 1121 b 396 953 442 1043 433 1024 b 347 925 385 931 364 922 m 767 483 b 782 400 801 483 817 435 b 528 242 731 349 642 281 b 225 0 471 103 368 0 b 0 283 51 0 0 143 b 36 474 0 354 15 418 l 36 482 b 343 869 32 676 154 869 b 585 542 522 869 585 689 b 561 347 585 476 576 410 b 728 464 618 375 674 415 b 767 483 743 478 756 483 m 342 790 b 122 492 201 790 121 632 b 347 293 122 335 225 293 b 461 308 386 293 425 299 b 497 524 485 376 497 451 b 342 790 496 692 438 790 m 225 79 b 419 217 306 79 372 135 b 350 213 397 214 374 213 b 88 308 250 213 147 231 l 88 294 b 225 79 88 171 122 79 "},"P":{"ha":1025,"x_min":0,"x_max":0,"o":"m 678 957 b 1025 658 888 957 1025 836 b 782 263 1025 544 957 382 b 733 331 725 224 672 286 b 938 661 863 425 938 543 b 669 876 938 781 843 876 b 88 393 396 876 88 658 b 282 235 88 285 171 235 b 550 396 381 235 476 304 b 600 439 567 417 571 439 b 625 378 614 439 635 429 b 563 1 617 332 568 32 b 514 -42 558 -28 535 -42 b 476 6 492 -42 472 -26 b 515 240 481 43 501 163 b 274 154 449 182 353 154 b 0 404 114 154 0 240 b 678 957 0 706 342 957 "},"Q":{"ha":644,"x_min":0,"x_max":0,"o":"m 544 44 b 503 -29 604 10 557 -58 b 381 49 458 -6 418 21 b 226 0 338 18 286 0 b 0 233 53 0 0 131 b 25 394 0 296 6 340 b 67 422 32 411 49 422 b 101 368 88 422 111 406 b 86 239 85 293 86 261 b 226 81 86 158 124 81 b 315 107 258 81 289 90 b 118 599 179 240 118 410 b 357 958 118 801 197 958 b 596 601 526 958 596 763 b 447 110 596 433 549 232 b 544 44 476 88 508 65 m 204 619 b 381 167 203 438 254 289 b 508 583 465 271 508 453 b 356 879 507 782 442 879 b 204 619 254 879 204 750 "},"R":{"ha":926,"x_min":0,"x_max":0,"o":"m 894 293 b 924 226 918 293 935 263 b 701 1 903 149 835 1 b 406 254 564 1 464 160 b 390 299 396 271 390 286 b 425 343 390 317 404 326 b 676 733 539 433 676 569 b 532 874 676 824 639 874 b 156 742 424 874 269 815 b 85 769 114 714 85 740 b 101 803 85 782 90 793 b 533 956 154 847 360 956 b 765 732 682 956 765 874 b 482 288 765 583 654 399 b 706 81 536 210 628 81 b 849 257 746 81 794 122 b 894 293 860 283 881 293 m 346 703 b 383 651 367 703 389 683 b 319 292 374 590 349 443 b 129 0 278 81 251 0 b 21 260 47 0 -39 53 b 101 242 40 328 121 306 b 131 78 56 94 113 78 b 236 304 190 78 204 150 b 299 657 254 394 276 524 b 346 703 304 689 325 703 "},"S":{"ha":758,"x_min":0,"x_max":0,"o":"m 706 431 b 758 390 742 432 758 411 b 715 350 758 371 742 350 b 414 311 658 350 526 339 b 465 196 444 282 465 246 b 217 -19 465 39 307 -19 b 63 121 118 -19 63 39 b 226 326 63 204 124 274 b 0 621 122 376 0 440 b 385 957 0 839 233 957 b 638 740 563 957 638 861 b 540 517 638 669 606 592 b 472 568 500 471 425 503 b 549 739 524 639 549 693 b 389 876 549 824 486 876 b 89 615 232 876 89 754 b 325 368 89 465 218 422 b 706 431 426 401 565 426 m 218 61 b 376 190 271 60 376 100 b 315 281 376 231 353 257 b 150 118 217 240 150 183 b 218 61 150 86 175 61 "},"Ś":{"ha":758,"x_min":0,"x_max":0,"o":"m 364 907 b 339 969 342 911 324 936 b 399 1106 360 1018 374 1051 b 450 1136 411 1131 432 1139 b 479 1069 476 1132 494 1103 b 413 935 458 1025 450 1006 b 364 907 401 913 381 904 m 706 431 b 758 390 742 432 758 411 b 715 350 758 371 742 350 b 397 307 656 350 514 338 b 458 189 433 281 458 244 b 217 -19 458 56 317 -19 b 63 121 118 -19 63 39 b 193 307 63 194 111 257 b 0 524 97 336 0 379 b 385 860 0 742 233 860 b 638 640 563 860 638 758 b 589 489 638 574 611 513 b 510 515 550 447 483 471 b 551 629 515 525 551 574 b 389 779 551 733 486 779 b 89 518 232 779 89 657 b 292 356 89 414 194 389 b 706 431 396 396 550 426 m 218 61 b 371 192 279 61 371 118 b 301 274 371 235 342 257 b 150 118 211 235 150 181 b 218 61 150 86 175 61 "},"T":{"ha":971,"x_min":0,"x_max":0,"o":"m 908 851 b 964 813 943 853 964 840 b 914 771 964 793 947 772 b 596 768 811 767 697 768 b 475 44 575 635 519 299 b 432 1 469 13 450 1 b 390 58 407 1 383 19 b 510 767 429 293 469 553 b 354 764 449 767 394 767 b 79 631 183 756 79 717 b 307 601 79 525 236 550 b 374 581 340 626 374 614 b 338 526 374 560 361 543 b -7 628 250 465 -10 422 b 294 836 -6 758 125 822 b 543 843 333 840 432 842 b 558 843 549 844 553 844 b 908 851 679 846 814 847 "},"U":{"ha":817,"x_min":0,"x_max":0,"o":"m 740 436 b 814 407 754 486 833 482 b 535 7 719 51 603 6 b 424 411 407 8 397 189 b 131 1 346 193 247 1 b 3 207 18 1 3 94 b 131 917 3 388 75 728 b 176 956 139 944 157 956 b 214 899 203 956 221 929 b 88 185 147 644 88 385 b 122 81 88 125 103 81 b 483 863 229 81 397 531 b 565 833 496 914 583 914 b 543 86 493 515 458 86 b 740 436 601 86 681 221 "},"V":{"ha":739,"x_min":0,"x_max":0,"o":"m 686 664 b 688 583 742 668 763 593 b 583 578 654 579 615 578 b 499 581 553 578 525 579 b 385 274 472 486 435 378 b 128 0 318 131 226 0 b 0 225 33 0 0 107 b 72 743 0 425 46 638 b 154 713 90 817 171 788 b 85 229 103 486 85 331 b 133 81 85 125 104 81 b 310 318 182 81 249 185 b 411 593 350 404 385 503 b 263 771 314 615 263 667 b 411 956 263 858 324 956 b 535 792 450 956 535 939 b 517 658 535 758 528 711 b 575 657 535 657 554 657 b 686 664 621 657 663 663 m 349 765 b 431 669 349 711 379 683 b 449 800 442 721 449 767 b 411 876 449 844 438 876 b 349 765 376 876 349 825 "},"W":{"ha":1081,"x_min":0,"x_max":0,"o":"m 1032 663 b 1081 622 1051 665 1082 658 b 1029 579 1081 606 1068 586 b 817 565 986 571 892 565 b 514 -6 789 339 692 -6 b 360 221 429 -6 367 83 b 147 -10 315 101 242 -10 b 1 226 28 -10 1 106 b 89 756 1 379 38 578 b 140 811 92 761 99 811 b 172 733 164 811 189 796 b 89 200 133 586 89 407 b 149 71 89 114 111 71 b 386 614 192 71 290 150 b 439 667 394 651 414 667 b 474 600 464 667 482 640 b 518 75 394 183 464 75 b 728 567 608 75 700 340 b 519 760 607 578 521 632 b 678 950 518 865 571 950 b 825 682 792 950 825 824 l 824 647 b 1032 663 890 649 967 656 m 607 771 b 736 649 607 681 663 656 b 738 700 738 667 738 683 b 674 869 738 778 725 869 b 607 771 639 869 607 836 "},"X":{"ha":601,"x_min":0,"x_max":0,"o":"m 563 957 b 590 878 594 957 615 921 b 347 467 507 733 428 600 b 538 76 410 333 474 201 b 504 1 561 29 533 1 b 464 26 488 1 474 10 b 293 375 426 94 363 226 b 86 19 226 263 158 147 b 39 -11 74 -3 57 -11 b 10 61 10 -11 -14 18 b 247 471 89 206 157 318 b 72 868 183 608 119 751 b 108 939 57 906 78 939 b 156 901 131 939 144 929 b 303 564 200 792 250 678 b 518 931 361 663 431 781 b 563 957 529 949 549 957 "},"Y":{"ha":654,"x_min":0,"x_max":0,"o":"m 604 179 b 654 139 639 178 654 160 b 603 99 654 121 643 99 b 383 64 522 99 447 89 l 350 -133 b 199 -289 331 -243 265 -289 b 86 -157 128 -289 86 -233 b 307 117 86 -69 158 43 l 347 335 b 114 57 271 157 189 57 b 0 232 46 57 0 100 b 103 868 0 436 58 701 b 188 851 122 940 203 914 b 88 229 121 588 88 363 b 118 136 88 175 97 136 b 471 900 196 136 349 499 b 521 943 481 931 503 943 b 558 875 547 943 569 917 b 399 154 486 611 435 351 b 604 179 458 172 526 182 m 204 -208 b 271 -82 247 -208 260 -144 l 288 13 b 174 -162 217 -36 174 -96 b 204 -208 174 -183 185 -208 "},"Z":{"ha":718,"x_min":0,"x_max":0,"o":"m 681 403 b 714 335 704 403 726 382 b 444 3 674 186 557 3 b 256 100 367 3 306 51 b 117 1 206 22 164 1 b 0 131 58 1 0 46 b 133 289 0 222 56 289 b 235 242 167 289 200 269 b 333 451 261 297 293 367 b 482 792 389 569 440 696 b 274 746 425 761 329 746 b 79 882 203 746 79 763 b 126 949 79 908 88 949 b 165 897 147 949 165 938 b 276 825 165 835 214 825 b 521 907 361 825 461 869 b 597 843 575 940 624 908 b 300 182 531 672 379 340 b 442 82 351 132 401 82 b 642 374 479 82 572 165 b 681 403 647 390 663 403 m 121 81 b 194 164 142 81 164 107 b 131 207 169 189 149 207 b 83 136 100 207 83 172 b 121 81 83 104 96 81 "},"Ź":{"ha":693,"x_min":0,"x_max":0,"o":"m 322 875 b 297 938 300 879 282 904 b 357 1074 318 986 332 1019 b 408 1104 369 1099 390 1107 b 438 1038 435 1100 453 1071 b 371 903 417 993 408 974 b 322 875 360 881 339 872 m 656 336 b 689 268 679 336 704 315 b 444 3 649 138 557 3 b 256 100 367 3 306 51 b 117 1 206 22 164 1 b 0 131 58 1 0 46 b 133 289 0 222 56 289 b 235 242 167 289 200 269 b 333 451 261 297 293 367 b 463 747 389 569 425 658 b 254 701 406 717 310 701 b 60 838 183 701 60 718 b 107 904 60 864 68 904 b 146 853 128 904 146 893 b 257 781 146 790 194 781 b 501 863 342 781 442 825 b 578 799 556 896 604 864 b 300 182 511 629 378 338 b 442 82 351 132 401 82 b 617 307 479 82 547 122 b 656 336 624 324 638 336 m 121 81 b 194 164 142 81 164 107 b 131 207 169 189 149 207 b 83 136 100 207 83 172 b 121 81 83 104 96 81 "},"Ż":{"ha":693,"x_min":0,"x_max":0,"o":"m 656 336 b 689 268 679 336 704 315 b 444 3 649 138 557 3 b 256 100 367 3 306 51 b 117 1 206 22 164 1 b 0 131 58 1 0 46 b 133 289 0 222 56 289 b 235 242 167 289 200 269 l 289 356 b 229 356 271 356 250 356 b 176 394 193 356 176 368 b 213 431 176 406 181 429 l 325 433 b 333 451 328 439 331 446 b 482 792 389 569 440 696 b 274 746 425 761 329 746 b 79 882 203 746 79 763 b 126 949 79 908 88 949 b 165 897 147 949 165 938 b 276 825 165 835 214 825 b 521 907 361 825 461 869 b 597 843 575 940 624 908 b 419 435 557 742 486 581 l 499 435 b 540 396 522 435 540 421 b 500 357 540 376 525 358 b 383 356 469 356 435 356 b 300 182 353 289 324 228 b 442 82 351 132 401 82 b 617 307 479 82 547 122 b 656 336 624 324 638 336 m 121 81 b 194 164 142 81 164 107 b 131 207 169 189 149 207 b 83 136 100 207 83 172 b 121 81 83 104 96 81 "},"a":{"ha":740,"x_min":0,"x_max":0,"o":"m 707 374 b 735 299 728 374 753 351 b 456 -7 678 129 567 -7 b 325 143 401 -7 342 15 b 151 -1 286 65 232 -1 b 0 217 50 -1 0 89 b 251 663 0 431 88 663 b 379 563 317 663 360 619 b 403 636 386 590 394 615 b 451 679 413 665 432 679 b 486 610 476 679 500 653 b 404 196 426 424 404 272 b 456 67 404 90 431 67 b 669 340 500 67 586 124 b 707 374 679 365 692 374 m 151 74 b 331 358 217 74 301 218 l 333 371 b 297 397 313 367 292 374 b 251 586 325 507 304 586 b 85 238 153 586 85 372 b 151 74 85 117 114 74 "},"ą":{"ha":692,"x_min":0,"x_max":0,"o":"m 692 231 b 522 8 690 172 617 51 b 510 -78 514 -24 510 -54 b 539 -135 510 -111 518 -135 b 607 -83 565 -135 586 -111 b 664 -58 628 -54 646 -50 b 671 -122 678 -65 690 -92 b 535 -208 649 -157 606 -208 b 431 -79 468 -208 431 -158 b 439 -6 431 -56 433 -31 b 325 143 389 -1 340 29 b 151 -1 286 65 232 -1 b 0 217 50 -1 0 89 b 251 663 0 431 88 663 b 379 563 317 663 360 619 b 403 636 386 590 394 615 b 451 679 413 665 432 679 b 486 610 476 679 500 653 b 404 196 426 424 404 272 b 456 67 404 90 431 67 l 460 67 b 643 282 500 181 578 282 b 692 231 682 282 693 260 m 151 74 b 331 358 217 74 301 218 l 333 371 b 297 397 313 367 292 374 b 251 586 325 507 304 586 b 85 238 153 586 85 372 b 151 74 85 117 114 74 "},"b":{"ha":675,"x_min":0,"x_max":0,"o":"m 601 410 b 650 342 653 454 707 393 b 385 183 585 285 489 214 b 167 -1 340 79 265 -1 b 0 246 46 -1 0 101 b 149 961 0 399 44 647 b 203 1013 163 1001 185 1013 b 235 939 231 1013 250 983 b 138 610 201 842 167 728 b 267 679 171 651 214 679 b 436 426 350 679 436 617 b 417 278 436 379 429 328 b 601 410 479 310 542 358 m 267 606 b 144 390 194 606 144 486 b 282 240 144 274 208 240 b 319 243 294 240 307 242 b 351 429 339 299 351 363 b 267 606 351 535 318 606 m 169 74 b 283 167 207 74 250 110 l 282 167 b 86 274 181 167 115 201 l 86 243 b 169 74 86 142 108 74 "},"c":{"ha":546,"x_min":0,"x_max":0,"o":"m 250 681 b 393 515 351 681 393 604 b 332 379 393 460 378 379 b 297 433 310 379 289 399 b 247 603 314 508 315 603 b 85 239 142 603 85 364 b 181 72 85 124 129 72 b 465 347 233 72 347 117 b 513 390 482 379 494 390 b 536 314 536 390 560 363 b 175 -4 443 121 314 -4 b 0 247 47 -4 0 97 b 250 681 0 443 92 681 "},"ć":{"ha":546,"x_min":0,"x_max":0,"o":"m 339 981 b 365 915 365 976 381 949 b 300 781 344 871 338 851 b 250 753 289 758 267 750 b 228 814 228 757 213 781 b 288 950 249 863 263 896 b 339 981 300 975 321 983 m 250 681 b 393 515 351 681 393 604 b 332 379 393 460 378 379 b 297 433 310 379 289 399 b 247 603 314 508 315 603 b 85 239 142 603 85 364 b 181 72 85 124 129 72 b 465 347 233 72 347 117 b 513 390 482 379 494 390 b 536 314 536 390 560 363 b 175 -4 443 121 314 -4 b 0 247 47 -4 0 97 b 250 681 0 443 92 681 "},"d":{"ha":740,"x_min":0,"x_max":0,"o":"m 707 374 b 735 299 728 374 753 351 b 456 -7 678 129 567 -7 b 325 143 401 -7 343 22 b 151 -1 288 67 232 -1 b 0 217 50 -1 0 89 b 251 663 0 431 88 663 b 375 572 313 663 354 625 b 479 967 404 701 439 838 b 528 1010 488 994 508 1010 b 563 940 553 1010 575 983 b 404 196 465 622 404 313 b 456 67 404 100 431 67 b 669 340 500 67 586 124 b 707 374 679 365 692 374 m 151 74 b 331 358 217 74 304 219 l 333 371 b 297 397 313 367 292 374 b 251 586 325 507 304 586 b 85 238 153 586 85 372 b 151 74 85 117 114 74 "},"e":{"ha":556,"x_min":0,"x_max":0,"o":"m 524 360 b 550 290 546 360 567 335 b 192 -7 483 126 339 -7 b 0 272 22 -7 0 149 b 251 679 0 463 97 679 b 375 538 328 679 375 619 b 83 229 375 406 276 233 b 190 67 90 139 121 64 b 481 324 292 69 394 157 b 524 360 492 350 508 360 m 246 603 b 83 300 168 603 93 449 b 292 524 222 304 292 451 b 246 603 292 583 269 603 "},"ę":{"ha":432,"x_min":0,"x_max":0,"o":"m 374 -71 b 399 -133 400 -71 422 -97 b 238 -221 365 -183 296 -221 b 133 -108 171 -221 133 -174 b 157 -4 133 -82 142 -43 b 0 272 19 15 0 157 b 251 679 0 463 97 679 b 375 538 328 679 375 619 b 83 229 375 399 282 233 b 190 67 90 139 121 67 l 196 67 b 386 232 264 171 347 232 b 432 176 422 232 432 200 b 244 -3 431 135 376 22 b 211 -110 222 -47 211 -86 b 242 -146 211 -131 219 -146 b 340 -89 265 -146 301 -136 b 374 -71 350 -76 363 -71 m 246 603 b 83 300 168 603 93 449 b 292 524 229 306 292 450 b 246 603 292 583 269 603 "},"f":{"ha":540,"x_min":0,"x_max":0,"o":"m 496 396 b 483 318 553 389 561 314 b 415 319 461 319 439 319 b 349 318 393 319 371 319 b 358 231 356 293 358 264 b 136 -196 358 76 290 -196 b 3 -17 71 -196 3 -167 b 38 282 3 60 17 165 b 0 313 7 276 0 294 b 56 374 0 332 22 354 b 218 969 101 592 168 828 b 267 1013 228 996 247 1013 b 301 943 292 1013 315 986 b 154 407 246 774 193 581 b 233 415 179 413 206 415 b 301 394 260 415 282 408 b 426 400 346 399 392 400 b 496 396 451 400 475 399 m 272 244 b 263 313 272 275 268 297 b 131 299 217 310 171 304 b 88 -10 104 165 88 54 b 131 -122 88 -107 106 -122 b 272 244 204 -122 272 74 "},"g":{"ha":489,"x_min":0,"x_max":0,"o":"m 451 679 b 486 610 476 679 497 653 b 350 -146 443 404 353 -131 b 197 -356 326 -308 268 -356 b 65 -221 110 -356 65 -294 b 288 -11 65 -108 172 -37 l 306 101 b 151 -1 268 43 217 -1 b 0 217 50 -1 0 89 b 251 663 0 431 88 663 b 383 550 322 663 367 613 l 403 636 b 451 679 410 665 432 679 m 151 74 b 339 374 238 74 296 215 b 297 397 317 365 292 371 b 251 586 325 507 304 586 b 85 238 153 586 85 372 b 151 74 85 117 114 74 m 192 -275 b 267 -147 225 -275 250 -240 l 275 -93 b 147 -218 207 -117 147 -161 b 192 -275 147 -249 163 -275 "},"h":{"ha":739,"x_min":0,"x_max":0,"o":"m 668 369 b 736 336 686 417 754 400 b 433 -10 679 136 568 -10 b 317 150 346 -10 317 63 b 372 517 317 242 343 388 b 253 263 344 450 304 363 b 54 0 154 74 111 0 b 0 81 4 0 0 47 b 163 969 0 260 99 775 b 243 936 183 1032 267 1014 b 83 124 193 772 104 324 b 300 551 153 251 221 382 b 417 672 349 654 376 672 b 471 606 449 672 471 644 b 401 163 471 542 401 289 b 439 64 401 90 415 64 b 668 369 464 64 557 78 "},"i":{"ha":446,"x_min":0,"x_max":0,"o":"m 192 963 b 294 864 258 964 294 915 b 188 758 294 794 238 758 b 92 858 136 758 92 792 b 192 963 92 915 131 961 m 192 901 b 154 863 175 901 154 889 b 192 824 154 842 164 824 b 229 863 210 824 229 838 b 192 901 229 885 215 901 m 83 603 b 168 579 103 674 189 656 b 99 182 122 417 99 269 b 143 78 99 113 117 78 b 372 365 176 78 257 103 b 411 396 381 385 394 396 b 440 333 432 396 456 374 b 138 1 333 49 208 1 b 14 169 43 1 14 85 b 83 603 14 308 44 457 "},"j":{"ha":528,"x_min":0,"x_max":0,"o":"m 425 975 b 528 876 492 975 528 928 b 421 771 528 807 471 771 b 325 871 369 771 325 804 b 425 975 325 928 364 975 m 425 836 b 463 875 443 836 463 851 b 425 914 463 897 449 914 b 388 876 410 914 390 903 b 425 836 389 854 399 836 m 397 664 b 432 599 422 664 442 642 b 265 -239 390 381 283 -156 b 104 -408 242 -349 194 -408 b -15 -274 39 -408 -15 -358 b 228 -18 -15 -167 56 -32 b 347 607 258 142 303 369 b 397 664 358 653 383 664 m 211 -97 b 68 -267 114 -122 68 -193 b 113 -329 68 -321 93 -329 b 183 -231 149 -329 174 -278 "},"k":{"ha":747,"x_min":0,"x_max":0,"o":"m 715 406 b 743 346 735 406 757 385 b 439 0 675 154 558 0 b 294 267 349 0 294 132 b 64 0 175 63 122 0 b 0 93 13 0 0 42 b 172 978 0 285 113 793 b 222 1017 182 1007 203 1017 b 257 954 250 1017 268 989 b 81 85 169 668 89 240 b 360 593 147 167 263 356 b 411 608 364 601 386 608 b 485 554 446 608 485 594 b 371 372 485 497 401 424 b 443 75 361 357 389 75 b 671 371 476 75 558 125 b 715 406 678 385 692 406 "},"l":{"ha":478,"x_min":0,"x_max":0,"o":"m 149 969 b 229 936 161 1019 249 1017 b 86 167 174 708 86 324 b 136 78 86 106 99 78 b 401 379 168 78 269 118 b 442 407 410 394 425 407 b 469 336 467 407 492 381 b 122 1 314 25 190 1 b 0 147 36 1 0 69 b 149 969 0 374 114 836 "},"ł":{"ha":486,"x_min":0,"x_max":0,"o":"m 450 407 b 478 336 475 407 500 381 b 131 1 322 25 199 1 b 8 147 44 1 8 69 b 135 876 8 357 94 718 l 36 876 b 0 913 13 876 0 896 b 47 953 0 933 15 953 l 333 954 b 383 919 368 954 383 939 b 336 876 383 900 367 876 l 224 876 b 94 167 168 649 94 324 b 144 78 94 106 107 78 b 410 379 176 78 278 118 b 450 407 418 394 433 407 "},"m":{"ha":1108,"x_min":0,"x_max":0,"o":"m 1075 396 b 1100 329 1099 396 1119 375 b 789 3 975 47 857 3 b 682 179 707 3 682 83 b 692 301 682 219 686 261 b 454 1 622 122 538 1 b 357 181 381 1 357 81 b 375 363 357 236 364 301 b 110 -7 276 85 193 -7 b 0 176 18 -7 0 81 b 86 649 0 331 50 554 b 131 681 94 669 113 681 b 167 615 156 681 179 660 b 82 160 103 383 82 238 b 115 72 82 94 97 72 b 381 583 206 72 346 522 b 435 614 392 603 411 614 b 489 532 468 614 500 585 b 439 164 454 360 439 238 b 465 76 439 106 449 76 b 692 506 514 76 618 310 b 749 546 701 531 725 546 b 799 471 778 546 808 522 b 764 174 778 357 764 247 b 797 76 764 114 772 76 b 1035 367 846 76 935 156 b 1075 396 1044 385 1060 396 "},"n":{"ha":754,"x_min":0,"x_max":0,"o":"m 681 358 b 746 319 710 413 779 386 b 435 1 649 124 544 1 b 321 138 346 1 321 65 b 361 418 321 211 339 321 b 243 206 317 336 271 251 b 65 1 168 85 121 1 b 0 114 6 1 0 53 b 100 644 0 258 58 519 b 142 676 106 661 125 676 b 179 611 168 676 193 656 b 81 100 126 439 86 199 b 325 515 147 203 258 401 b 403 582 347 554 371 582 b 461 511 432 582 461 560 b 403 144 461 472 403 243 b 435 75 403 99 414 75 b 681 358 471 75 568 147 "},"ń":{"ha":761,"x_min":0,"x_max":0,"o":"m 301 689 b 279 750 279 693 264 717 b 339 886 300 799 314 832 b 390 917 351 911 372 919 b 417 851 417 913 432 885 b 351 717 396 807 389 788 b 301 689 340 694 318 686 m 686 344 b 756 314 715 399 781 382 b 435 1 693 144 544 1 b 321 138 346 1 321 65 b 361 418 321 211 339 321 b 243 206 317 336 271 251 b 65 1 168 85 121 1 b 0 114 6 1 0 53 b 100 644 0 258 58 519 b 142 676 106 661 125 676 b 179 611 168 676 193 656 b 81 100 126 439 86 199 b 325 515 147 203 258 401 b 403 582 347 554 371 582 b 461 511 432 582 461 560 b 403 144 461 472 403 243 b 435 75 403 99 414 75 b 686 344 471 75 574 133 "},"o":{"ha":419,"x_min":0,"x_max":0,"o":"m 246 678 b 421 419 350 678 421 586 b 172 1 421 204 325 1 b 21 197 64 1 21 93 b 46 381 21 258 31 325 b 33 378 42 379 38 378 b 1 425 15 378 -3 396 b 246 678 17 547 124 678 m 179 76 b 338 428 263 76 338 249 b 235 603 338 535 301 603 b 93 469 185 603 125 543 b 110 474 99 472 104 474 b 142 414 135 474 156 449 b 104 201 115 328 104 257 b 179 76 104 122 129 76 "},"ó":{"ha":419,"x_min":0,"x_max":0,"o":"m 243 753 b 221 814 221 757 206 781 b 281 950 242 863 256 896 b 332 981 293 975 314 983 b 358 915 358 976 374 949 b 293 781 338 871 331 851 b 243 753 282 758 260 750 m 246 678 b 421 419 350 678 421 586 b 172 1 421 204 325 1 b 21 197 64 1 21 93 b 46 381 21 258 31 325 b 33 378 42 379 38 378 b 1 425 15 378 -3 396 b 246 678 17 547 124 678 m 179 76 b 338 428 263 76 338 249 b 235 603 338 535 301 603 b 93 469 185 603 125 543 b 110 474 99 472 104 474 b 142 414 135 474 156 449 b 104 201 115 328 104 257 b 179 76 104 122 129 76 "},"p":{"ha":528,"x_min":0,"x_max":0,"o":"m 376 664 b 528 446 478 664 528 574 b 276 0 528 232 440 0 b 143 101 208 0 163 43 b 82 -264 115 -54 97 -161 b 0 -256 74 -321 -7 -312 b 168 650 10 -172 86 281 b 250 628 181 707 265 694 l 243 599 b 376 664 281 638 326 664 m 276 76 b 443 425 375 76 443 290 b 372 589 443 546 410 589 b 179 306 307 589 210 468 l 176 289 b 208 233 197 292 219 278 b 276 76 189 156 224 76 "},"q":{"ha":472,"x_min":0,"x_max":0,"o":"m 390 650 b 471 628 403 706 485 694 b 288 -257 413 335 353 68 b 206 -247 276 -314 199 -304 b 268 64 211 -210 243 -57 b 150 1 238 28 197 1 b 0 210 42 1 0 89 b 250 665 0 424 86 665 b 374 568 314 665 354 625 m 150 76 b 326 349 214 76 294 213 b 296 394 308 350 289 364 b 308 488 301 419 308 463 b 247 589 308 554 285 589 b 82 228 153 589 82 363 b 150 76 82 107 113 76 "},"r":{"ha":607,"x_min":0,"x_max":0,"o":"m 554 432 b 571 353 606 453 633 376 b 315 450 435 301 338 351 b 135 74 256 324 167 138 b 61 3 107 17 83 3 b 0 93 4 3 0 68 b 76 626 0 244 31 460 b 122 667 83 653 103 667 b 156 597 147 667 168 644 b 78 133 124 475 83 267 b 307 619 142 274 275 549 b 368 682 328 667 343 682 b 408 628 388 682 414 669 b 390 511 404 596 390 561 b 471 415 390 465 410 415 b 554 432 493 415 521 421 "},"s":{"ha":474,"x_min":0,"x_max":0,"o":"m 424 411 b 433 331 479 419 496 340 b 225 269 346 317 278 294 b 257 144 247 226 257 186 b 117 -7 257 49 196 -7 b 0 119 60 -7 0 39 b 106 293 0 153 14 228 b 11 476 61 353 13 408 b 225 683 11 586 104 683 b 344 544 283 683 344 649 b 296 465 344 503 332 465 b 263 544 256 467 263 506 b 218 601 263 588 242 601 b 94 478 151 601 94 543 b 172 350 94 435 136 394 l 182 338 b 424 411 240 367 318 394 m 126 68 b 174 129 164 68 174 108 b 150 224 174 164 164 194 b 83 118 104 186 83 147 b 126 68 83 92 97 68 "},"ś":{"ha":474,"x_min":0,"x_max":0,"o":"m 206 753 b 183 814 183 757 168 781 b 243 950 204 863 218 896 b 294 981 256 975 276 983 b 321 915 321 976 336 949 b 256 781 300 871 293 851 b 206 753 244 758 222 750 m 424 411 b 433 331 479 419 496 340 b 226 269 347 317 279 296 b 257 153 247 231 257 194 b 117 1 257 57 196 1 b 0 128 60 1 0 47 b 108 296 0 163 14 232 b 11 476 64 354 13 407 b 225 683 11 586 104 683 b 344 544 283 683 344 649 b 296 465 344 503 332 465 b 263 544 256 467 263 506 b 218 601 263 588 242 601 b 94 478 151 601 94 543 b 172 350 94 435 136 394 l 182 338 b 424 411 240 367 318 394 m 126 76 b 174 138 164 76 174 117 b 153 226 174 171 165 199 b 83 126 104 192 83 156 b 126 76 83 100 97 76 "},"t":{"ha":494,"x_min":0,"x_max":0,"o":"m 461 404 b 485 335 486 404 507 379 b 142 -10 329 24 210 -10 b 19 136 56 -10 19 58 b 75 581 19 263 44 432 l 50 581 b 0 619 10 581 0 604 b 31 656 0 633 10 654 l 92 658 b 143 865 110 744 129 818 b 224 832 158 915 243 913 b 183 663 211 778 197 721 b 349 668 235 664 290 665 b 399 629 381 669 399 656 b 353 590 399 615 388 592 b 167 583 281 588 218 585 b 106 156 132 419 106 258 b 156 67 106 94 118 67 b 421 376 188 67 283 115 b 461 404 429 392 444 404 "},"u":{"ha":760,"x_min":0,"x_max":0,"o":"m 722 393 b 756 331 746 393 769 374 b 446 0 638 56 518 0 b 339 183 365 0 339 76 b 343 260 339 208 340 233 b 121 3 282 111 215 3 b 0 185 25 3 0 81 b 82 643 1 310 44 518 b 163 614 99 700 181 688 b 85 178 108 390 85 263 b 125 79 85 113 101 79 b 385 613 174 79 274 249 b 449 678 400 664 425 678 b 485 596 476 678 500 653 b 422 185 444 439 422 285 b 453 76 422 117 432 76 b 679 360 499 76 596 169 b 722 393 688 379 703 393 "},"v":{"ha":628,"x_min":0,"x_max":0,"o":"m 572 458 b 593 382 629 468 653 399 b 414 363 553 371 490 364 b 385 286 404 336 394 311 b 129 0 319 129 224 0 b 0 279 33 0 0 131 b 63 656 0 424 31 583 b 101 685 71 676 86 685 b 140 625 126 685 150 661 b 85 256 101 476 85 350 b 138 75 85 144 107 75 b 321 354 183 75 267 210 l 329 378 b 200 606 260 408 200 483 b 247 756 200 667 224 726 b 346 806 281 797 315 806 b 467 650 422 806 467 733 b 438 443 467 588 456 517 b 572 458 486 444 536 453 m 283 610 b 354 458 283 535 306 482 b 343 729 392 599 401 729 b 283 610 311 729 283 669 "},"w":{"ha":914,"x_min":0,"x_max":0,"o":"m 863 456 b 879 379 917 465 936 394 b 714 360 839 367 779 361 b 686 283 706 333 696 307 b 422 0 610 97 517 0 b 300 197 344 0 311 85 b 115 1 231 7 143 0 b 0 213 26 6 0 115 b 83 651 0 375 57 576 b 124 685 92 675 108 685 b 163 624 150 685 174 660 b 82 200 124 500 82 325 b 125 76 82 106 107 76 b 317 507 183 76 285 333 b 356 646 325 550 346 621 b 394 675 364 667 379 675 b 433 615 419 675 443 651 b 378 256 394 471 378 347 b 431 75 378 144 400 75 b 608 317 476 75 557 178 l 628 372 b 490 568 556 396 490 456 b 538 718 490 629 514 689 b 636 768 571 760 606 768 b 757 613 713 768 757 696 b 735 440 757 560 749 500 b 863 456 781 443 828 450 m 574 572 b 650 451 574 504 606 467 b 633 692 683 582 688 692 b 574 572 601 692 574 632 "},"x":{"ha":521,"x_min":0,"x_max":0,"o":"m 482 676 b 506 593 514 676 543 638 b 263 281 432 501 350 399 b 390 78 321 185 374 103 b 358 1 419 36 389 1 b 321 24 346 1 331 8 b 206 207 300 50 258 121 b 85 29 167 154 125 90 b 36 1 71 7 51 1 b 13 81 7 1 -15 39 b 157 289 39 122 99 211 b 4 576 96 393 29 515 b 38 647 -14 619 11 647 b 85 617 54 647 72 642 b 217 364 133 526 172 440 b 439 654 282 454 365 565 b 482 676 451 669 468 676 "},"y":{"ha":458,"x_min":0,"x_max":0,"o":"m 421 682 b 456 617 446 682 465 660 b 335 -1 428 468 372 188 b 411 -43 374 -4 411 -14 b 369 -78 411 -60 396 -78 b 321 -72 365 -78 343 -74 l 299 -183 b 138 -353 275 -293 228 -353 b 21 -232 67 -353 21 -301 b 253 -3 21 -82 139 -17 b 290 185 265 54 278 119 b 108 1 249 89 186 1 b 0 164 15 1 0 75 b 78 640 0 304 40 533 b 124 674 85 661 104 674 b 158 610 147 674 168 654 b 83 169 108 411 83 260 b 118 76 83 103 90 76 b 371 625 153 76 263 189 b 421 682 382 669 407 682 m 142 -274 b 217 -175 183 -274 207 -222 l 238 -78 b 103 -222 150 -97 103 -161 b 142 -274 103 -265 128 -274 "},"z":{"ha":743,"x_min":0,"x_max":0,"o":"m 669 311 b 736 267 688 354 765 349 b 474 0 683 121 603 0 b 261 103 392 0 319 51 b 114 0 196 10 154 0 b 0 126 54 0 0 36 b 128 283 0 222 50 283 b 247 225 163 283 204 257 l 281 281 b 410 517 336 378 372 449 b 294 492 367 497 317 492 b 113 618 211 492 113 521 b 160 679 113 653 129 679 b 196 638 181 679 196 660 b 300 572 196 579 264 572 b 492 656 343 572 411 589 b 557 600 532 689 592 660 b 308 176 518 532 386 303 b 471 79 368 126 428 79 b 669 311 500 79 575 85 m 122 75 b 204 156 143 75 172 107 b 128 207 172 185 147 207 b 81 133 101 207 82 178 b 122 75 79 96 97 75 "},"ź":{"ha":743,"x_min":0,"x_max":0,"o":"m 333 721 b 311 782 311 725 296 749 b 371 918 332 831 346 864 b 422 949 383 943 404 951 b 449 883 449 944 464 917 b 383 749 428 839 421 819 b 333 721 372 726 350 718 m 669 311 b 736 267 688 354 765 349 b 474 0 683 121 603 0 b 261 103 392 0 319 51 b 114 0 196 10 154 0 b 0 126 54 0 0 36 b 128 283 0 222 50 283 b 247 225 163 283 204 257 l 281 281 b 410 517 336 378 372 449 b 294 492 367 497 317 492 b 113 618 211 492 113 521 b 160 679 113 653 129 679 b 196 638 181 679 196 660 b 300 572 196 579 264 572 b 492 656 343 572 411 589 b 557 600 532 689 592 660 b 308 176 518 532 386 303 b 471 79 368 126 428 79 b 669 311 500 79 575 85 m 122 75 b 204 156 143 75 172 107 b 128 207 172 185 147 207 b 81 133 101 207 82 178 b 122 75 79 96 97 75 "},"ż":{"ha":743,"x_min":0,"x_max":0,"o":"m 346 706 b 250 806 294 706 250 739 b 350 910 250 863 289 910 b 453 811 417 910 453 863 b 346 706 453 742 396 706 m 350 849 b 313 810 333 849 313 836 b 350 771 313 789 322 771 b 388 810 368 771 388 785 b 350 849 388 832 374 849 m 669 311 b 736 267 688 354 765 349 b 474 0 683 121 603 0 b 261 103 392 0 319 51 b 114 0 196 10 154 0 b 0 126 54 0 0 36 b 128 283 0 222 50 283 b 247 225 163 283 204 257 l 281 281 b 410 517 336 378 372 449 b 294 492 367 497 317 492 b 113 618 211 492 113 521 b 160 679 113 653 129 679 b 196 638 181 679 196 660 b 300 572 196 579 264 572 b 492 656 343 572 411 589 b 557 600 532 689 592 660 b 308 176 518 532 386 303 b 471 79 368 126 428 79 b 669 311 500 79 575 85 m 122 75 b 204 156 143 75 172 107 b 128 207 172 185 147 207 b 81 133 101 207 82 178 b 122 75 79 96 97 75 "},"⁄":{"ha":540,"x_min":0,"x_max":0,"o":"m 368 764 b 406 693 397 764 421 736 b 146 -72 289 369 264 271 b 93 -111 135 -100 113 -111 b 60 -46 67 -111 44 -89 b 319 729 175 290 214 426 b 368 764 328 754 350 764 "},"*":{"ha":325,"x_min":0,"x_max":0,"o":"m 265 892 b 303 832 315 919 350 861 b 217 785 279 815 251 803 b 283 713 243 754 265 733 b 226 668 317 668 264 625 b 161 744 206 689 182 719 b 96 668 140 719 117 689 b 39 713 58 625 6 668 b 107 786 57 733 79 756 b 22 832 72 803 46 817 b 60 892 -25 861 10 919 b 126 854 79 882 104 868 b 126 947 125 890 126 915 b 200 944 126 996 200 1000 b 197 854 200 918 199 885 b 265 892 221 868 246 881 "},"\\":{"ha":397,"x_min":0,"x_max":0,"o":"m 60 1032 b 104 990 79 1032 99 1018 b 285 38 183 554 258 167 b 242 -21 292 0 267 -21 b 197 14 222 -21 203 -11 b 15 965 157 176 67 694 b 60 1032 7 1007 33 1032 "},"·":{"ha":364,"x_min":0,"x_max":0,"o":"m 185 431 b 253 361 232 431 253 394 b 182 293 253 315 217 293 b 111 357 138 293 111 317 b 185 431 111 394 138 431 "},"•":{"ha":503,"x_min":0,"x_max":0,"o":"m 256 490 b 392 356 350 490 392 419 b 250 208 392 260 319 208 b 111 343 161 208 111 274 b 256 490 111 418 161 490 "},":":{"ha":361,"x_min":0,"x_max":0,"o":"m 200 513 b 267 444 247 513 267 478 b 197 375 267 407 239 376 b 128 440 153 375 128 400 b 200 513 128 478 153 513 m 143 149 b 210 78 190 149 210 111 b 140 11 210 40 182 13 b 69 75 96 11 69 35 b 143 149 69 113 96 149 "},",":{"ha":258,"x_min":0,"x_max":0,"o":"m 131 94 b 214 72 150 160 231 133 b 161 -101 201 25 185 -25 b 85 -79 143 -158 69 -140 b 131 94 97 -28 115 44 "},"…":{"ha":793,"x_min":0,"x_max":0,"o":"m 143 140 b 211 71 190 140 211 104 b 140 3 211 25 175 3 b 69 67 96 3 69 26 b 143 140 69 104 96 140 m 374 140 b 442 71 421 140 442 104 b 371 3 442 25 406 3 b 300 67 326 3 300 26 b 374 140 300 104 326 140 m 614 140 b 682 71 661 140 682 104 b 611 3 682 25 646 3 b 540 67 567 3 540 26 b 614 140 540 104 567 140 "},"!":{"ha":413,"x_min":0,"x_max":0,"o":"m 319 996 b 356 933 344 996 363 974 b 263 315 300 578 285 493 b 218 265 258 282 240 265 b 179 319 197 265 175 282 b 278 963 192 414 239 764 b 319 996 283 985 303 996 m 193 185 b 296 86 260 186 296 138 b 189 -19 296 17 239 -19 b 93 81 138 -19 93 14 b 193 185 93 138 132 183 m 193 124 b 156 85 176 124 156 111 b 193 46 156 64 165 46 b 231 85 211 46 231 60 b 193 124 231 107 217 124 "},"¡":{"ha":376,"x_min":0,"x_max":0,"o":"m 247 996 b 350 897 314 997 350 949 b 243 792 350 828 293 792 b 147 892 192 792 147 825 b 247 996 147 949 186 994 m 247 935 b 210 896 231 935 210 922 b 247 857 210 875 219 857 b 285 896 265 857 285 871 b 247 935 285 918 271 935 m 224 711 b 264 657 244 711 268 694 b 165 14 251 563 204 213 b 122 -19 160 -8 139 -19 b 85 43 97 -19 78 3 b 178 661 140 399 156 483 b 224 711 182 694 201 711 "},"#":{"ha":875,"x_min":0,"x_max":0,"o":"m 588 364 b 561 260 578 325 572 306 l 704 264 b 699 181 765 265 761 182 l 540 178 b 510 56 532 146 522 106 b 461 15 501 29 481 15 b 428 74 438 15 418 35 l 454 176 b 329 175 411 176 369 176 l 299 56 b 250 15 290 29 269 15 b 217 74 226 15 207 35 l 243 175 b 165 175 217 175 190 175 b 167 257 108 175 97 256 l 263 258 b 289 361 267 276 274 304 l 213 361 b 214 443 156 361 144 442 l 311 444 b 353 597 322 485 336 536 b 396 633 360 624 378 633 b 432 571 421 633 443 611 l 399 444 b 522 446 443 444 482 444 l 564 597 b 607 633 571 624 589 633 b 643 571 632 633 654 611 l 610 446 b 751 450 650 447 696 449 b 746 367 813 451 808 368 m 501 363 b 376 361 460 363 418 363 l 350 258 b 474 260 394 258 433 258 "},".":{"ha":294,"x_min":0,"x_max":0,"o":"m 143 140 b 211 71 190 140 211 104 b 140 3 211 25 175 3 b 69 67 96 3 69 26 b 143 140 69 104 96 140 "},"?":{"ha":665,"x_min":0,"x_max":0,"o":"m 360 986 b 610 743 501 986 608 888 b 276 286 613 481 276 482 b 238 233 276 246 257 233 b 194 288 218 233 193 246 b 524 742 199 528 524 536 b 361 906 524 832 457 906 b 167 725 243 906 167 822 b 233 593 167 668 185 638 b 175 540 267 563 226 504 b 83 715 128 572 83 639 b 360 986 83 850 186 986 m 236 185 b 339 86 303 186 339 138 b 232 -19 339 17 282 -19 b 136 81 181 -19 136 14 b 236 185 136 138 175 183 m 236 124 b 199 85 219 124 199 111 b 236 46 199 64 208 46 b 274 85 254 46 274 60 b 236 124 274 107 260 124 "},"¿":{"ha":693,"x_min":0,"x_max":0,"o":"m 456 1000 b 558 901 522 1001 558 953 b 451 796 558 832 501 796 b 356 896 400 796 356 829 b 456 1000 356 953 394 999 m 456 939 b 418 900 439 939 418 926 b 456 861 418 879 428 861 b 493 900 474 861 493 875 b 456 939 493 922 479 939 m 456 747 b 499 693 475 747 500 735 b 169 239 494 453 169 444 b 332 75 169 149 236 75 b 526 256 450 75 526 158 b 460 388 526 313 508 343 b 518 440 426 418 467 476 b 610 265 565 408 610 342 b 333 -6 610 131 507 -6 b 83 238 192 -6 85 93 b 417 694 81 500 417 499 b 456 747 417 735 436 747 "},"\"":{"ha":410,"x_min":0,"x_max":0,"o":"m 118 994 b 201 972 138 1060 218 1033 b 149 799 189 925 172 875 b 72 821 131 742 57 760 b 118 994 85 872 103 944 m 261 994 b 344 972 281 1060 361 1033 b 292 799 332 925 315 875 b 215 821 274 742 200 760 b 261 994 228 872 246 944 "},"'":{"ha":169,"x_min":0,"x_max":0,"o":"m 65 994 b 149 972 85 1060 165 1033 b 96 799 136 925 119 875 b 19 821 78 742 4 760 b 65 994 32 872 50 944 "},";":{"ha":399,"x_min":0,"x_max":0,"o":"m 218 515 b 285 447 265 515 285 481 b 215 378 285 410 257 379 b 146 443 171 378 146 403 b 218 515 146 481 171 515 m 113 94 b 196 72 132 160 213 133 b 143 -101 183 25 167 -25 b 67 -79 125 -158 51 -140 b 113 94 79 -28 97 44 "},"/":{"ha":539,"x_min":0,"x_max":0,"o":"m 494 996 b 532 925 524 996 551 968 b 93 18 385 601 265 361 b 40 -21 79 -10 60 -21 b 7 44 14 -21 -14 3 b 446 961 153 336 233 507 b 494 996 457 986 476 996 "},"_":{"ha":667,"x_min":0,"x_max":0,"o":"m 579 29 b 582 -56 639 29 639 -56 l 64 -54 b 69 29 8 -54 4 29 "},"{":{"ha":603,"x_min":0,"x_max":0,"o":"m 563 1003 b 603 963 589 1000 603 981 b 553 921 603 942 586 921 l 407 922 b 300 760 318 922 319 869 b 192 511 276 631 249 542 b 226 367 211 486 226 440 b 186 78 226 310 201 172 b 244 -1 178 24 200 -1 l 400 -1 b 399 -85 457 -1 463 -85 b 265 -86 376 -85 343 -86 b 111 131 86 -86 90 17 b 90 478 150 340 158 456 b 101 564 36 497 51 564 b 232 843 192 564 201 701 b 413 1003 258 967 285 1003 b 563 1003 460 1003 547 1004 "},"}":{"ha":626,"x_min":0,"x_max":0,"o":"m 526 569 b 515 478 589 569 585 478 b 424 354 472 478 439 414 b 371 81 403 274 390 168 b 182 -79 344 -43 318 -79 b 40 -79 143 -79 56 -81 b 0 -39 14 -76 0 -57 b 50 3 0 -18 17 3 l 196 1 b 303 164 285 1 285 57 b 354 411 321 274 340 371 b 432 529 374 469 399 510 b 389 660 401 550 379 592 l 403 765 b 358 925 411 839 438 925 l 203 925 b 204 1008 146 925 140 1008 b 349 1010 226 1008 260 1010 b 492 793 508 1010 508 903 b 526 569 465 617 458 569 "},"[":{"ha":618,"x_min":0,"x_max":0,"o":"m 515 1013 b 506 931 572 1013 581 931 b 293 929 489 931 399 929 b 140 7 247 697 172 219 b 353 6 235 7 343 6 b 347 -78 408 6 410 -78 l 194 -78 b 58 31 90 -78 44 -78 b 207 935 85 229 158 682 b 328 1014 221 1008 264 1014 b 515 1013 454 1014 486 1013 "},"]":{"ha":590,"x_min":0,"x_max":0,"o":"m 378 1014 b 514 906 482 1014 528 1014 b 365 1 488 707 414 254 b 244 -78 351 -72 308 -78 b 57 -76 118 -78 86 -76 b 67 6 0 -76 -8 6 b 279 7 83 6 174 7 b 432 929 325 239 400 717 b 219 931 338 929 229 931 b 225 1014 164 931 163 1014 "},"(":{"ha":492,"x_min":0,"x_max":0,"o":"m 424 981 b 468 911 492 1017 514 940 b 197 407 301 803 197 583 b 324 36 197 243 240 114 b 265 -24 369 -6 319 -72 b 111 400 154 75 111 258 b 424 981 111 624 246 885 "},")":{"ha":535,"x_min":0,"x_max":0,"o":"m 269 974 b 424 550 381 875 424 692 b 111 -31 424 326 289 65 b 67 39 43 -67 21 10 b 338 543 233 147 338 367 b 211 914 338 707 294 836 b 269 974 165 956 215 1022 "},"—":{"ha":618,"x_min":0,"x_max":0,"o":"m 494 443 b 497 358 565 443 565 358 l 113 360 b 118 443 57 360 53 443 "},"–":{"ha":531,"x_min":0,"x_max":0,"o":"m 407 440 b 410 356 478 440 478 356 b 113 357 297 356 207 357 b 118 440 57 357 53 440 "},"-":{"ha":503,"x_min":0,"x_max":0,"o":"m 379 440 b 382 356 450 440 450 356 b 113 357 269 356 207 357 b 118 440 57 357 53 440 "},"«":{"ha":764,"x_min":0,"x_max":0,"o":"m 358 204 b 317 136 407 168 361 103 b 99 308 267 174 136 279 b 93 400 51 346 69 381 b 338 594 151 450 240 521 b 388 532 386 632 435 569 b 167 356 278 444 204 385 b 358 204 228 310 319 235 m 585 592 b 635 529 633 631 683 567 b 415 357 524 442 453 386 b 607 203 474 308 564 238 b 563 135 660 161 607 100 b 350 304 508 176 388 275 b 353 406 306 339 319 376 b 585 592 401 447 488 515 "},"»":{"ha":765,"x_min":0,"x_max":0,"o":"m 374 426 b 371 325 418 392 404 354 b 139 139 322 283 236 215 b 89 201 90 100 40 164 b 308 374 200 289 271 344 b 117 528 250 422 160 493 b 161 596 64 569 117 631 b 374 426 215 554 336 456 m 625 422 b 631 331 672 385 654 350 b 386 136 572 281 483 210 b 336 199 338 99 289 161 b 557 375 446 286 519 346 b 365 526 496 421 404 496 b 407 594 317 563 363 628 b 625 422 457 557 588 451 "},"‹":{"ha":513,"x_min":0,"x_max":0,"o":"m 332 592 b 382 529 381 631 431 567 b 163 357 271 442 200 386 b 354 203 221 308 311 238 b 310 135 407 161 354 100 b 97 304 256 176 135 275 b 100 406 53 339 67 376 b 332 592 149 447 235 515 "},"›":{"ha":513,"x_min":0,"x_max":0,"o":"m 415 426 b 413 325 460 392 446 354 b 181 139 364 283 278 215 b 131 201 132 100 82 164 b 350 374 242 289 313 344 b 158 528 292 422 201 493 b 203 596 106 569 158 631 b 415 426 257 554 378 456 "},"„":{"ha":300,"x_min":0,"x_max":0,"o":""},"“":{"ha":385,"x_min":0,"x_max":0,"o":"m 118 994 b 201 972 138 1060 218 1033 b 149 799 189 925 172 875 b 72 821 131 742 57 760 b 118 994 85 872 103 944 m 261 994 b 344 972 281 1060 361 1033 b 292 799 332 925 315 875 b 215 821 274 742 200 760 b 261 994 228 872 246 944 "},"”":{"ha":389,"x_min":0,"x_max":0,"o":"m 118 994 b 201 972 138 1060 218 1033 b 149 799 189 925 172 875 b 72 821 131 742 57 760 b 118 994 85 872 103 944 m 261 994 b 344 972 281 1060 361 1033 b 292 799 332 925 315 875 b 215 821 274 742 200 760 b 261 994 228 872 246 944 "},"‘":{"ha":247,"x_min":0,"x_max":0,"o":"m 118 994 b 201 972 138 1060 218 1033 b 149 799 189 925 172 875 b 72 821 131 742 57 760 b 118 994 85 872 103 944 "},"’":{"ha":247,"x_min":0,"x_max":0,"o":"m 118 994 b 201 972 138 1060 218 1033 b 149 799 189 925 172 875 b 72 821 131 742 57 760 b 118 994 85 872 103 944 "},"‚":{"ha":272,"x_min":0,"x_max":0,"o":"m 103 94 b 186 72 122 160 203 133 b 133 -101 174 25 157 -25 b 57 -79 115 -158 42 -140 b 103 94 69 -28 88 44 "}," ":{"ha":264,"x_min":0,"x_max":0,"o":""},"¢":{"ha":564,"x_min":0,"x_max":0,"o":"m 485 364 b 408 382 465 307 392 321 b 381 496 422 432 413 475 b 290 139 343 350 326 285 l 297 139 b 396 206 328 139 361 149 b 467 168 431 263 503 233 b 292 61 429 101 369 61 l 271 63 b 258 11 267 46 263 29 b 185 31 243 -51 168 -42 l 197 81 b 83 288 126 114 83 186 b 321 588 83 440 190 578 l 340 663 b 418 643 357 728 436 713 l 401 576 b 485 364 488 542 511 442 m 165 281 b 217 163 165 224 185 185 b 300 503 251 306 272 393 b 165 281 229 481 165 394 "},"¤":{"ha":633,"x_min":0,"x_max":0,"o":"m 469 171 b 526 111 514 126 503 139 b 460 64 564 68 514 7 l 408 118 b 300 89 375 99 336 89 b 200 115 264 89 231 97 l 151 64 b 85 111 97 7 47 68 b 143 172 108 139 97 126 b 114 285 125 201 114 239 b 147 399 114 328 125 367 b 85 464 96 449 110 435 b 151 511 47 507 97 568 l 206 454 b 310 483 235 472 269 482 b 411 461 350 485 383 476 l 460 511 b 526 464 514 568 564 507 b 474 408 503 438 514 447 b 508 293 496 375 508 335 b 469 171 508 243 493 203 m 197 289 b 308 174 197 236 214 174 b 424 290 364 174 424 213 b 313 403 424 367 372 403 b 197 289 238 403 197 349 "},"$":{"ha":703,"x_min":0,"x_max":0,"o":"m 453 708 b 647 494 586 694 647 607 b 603 353 647 461 638 392 b 533 403 561 303 490 343 b 561 497 556 435 561 486 b 438 628 561 597 493 622 b 382 306 410 475 400 410 b 531 140 460 283 531 246 b 329 -22 531 76 474 -14 l 321 -69 b 240 -56 311 -129 228 -128 l 247 -15 b 113 97 179 1 131 46 b 194 122 90 158 160 194 b 261 68 210 92 232 76 l 292 247 b 93 422 197 271 93 300 b 368 708 93 585 215 692 l 379 776 b 463 767 390 842 475 838 m 178 428 b 304 325 178 363 236 342 l 354 622 b 178 428 265 603 178 536 m 446 150 b 371 226 446 190 414 211 l 343 60 b 446 150 408 65 446 110 "},"€":{"ha":683,"x_min":0,"x_max":0,"o":"m 496 225 b 569 189 521 283 593 246 b 333 -17 538 110 464 -17 b 135 233 178 -17 140 118 l 99 233 b 104 314 43 233 39 314 l 135 314 b 140 368 136 332 138 350 l 99 368 b 104 449 43 368 39 449 l 156 449 b 408 692 192 586 272 693 b 561 383 578 689 615 492 b 488 414 540 340 465 343 b 407 614 526 540 474 614 b 242 449 315 613 267 533 l 393 449 b 396 367 464 449 464 367 l 225 368 b 218 314 222 349 219 331 l 393 314 b 396 232 464 314 464 232 l 218 233 b 333 61 225 83 286 61 b 496 225 381 61 443 103 "},"£":{"ha":763,"x_min":0,"x_max":0,"o":"m 664 133 b 733 86 690 182 768 157 b 508 -46 689 -8 593 -46 b 207 8 425 -46 278 -11 b 153 -3 192 1 172 -3 b 69 50 103 -3 69 19 b 185 107 69 106 140 119 b 207 200 197 133 204 165 l 156 200 b 161 281 100 200 96 281 l 210 281 b 208 378 210 313 208 344 b 431 693 208 507 251 693 b 619 490 546 693 619 621 b 592 361 619 458 617 411 b 508 388 557 297 486 340 b 535 494 525 422 535 468 b 432 615 535 588 476 617 b 290 338 322 613 290 482 l 290 281 b 374 281 317 281 346 281 b 376 199 444 281 444 199 l 289 199 b 260 82 285 151 278 111 b 510 35 326 60 449 35 b 664 133 564 35 622 58 "},"¥":{"ha":596,"x_min":0,"x_max":0,"o":"m 476 660 b 546 617 510 718 576 672 b 365 326 479 504 415 408 l 433 326 b 436 244 496 326 486 244 b 329 246 392 244 372 246 l 322 190 b 407 190 343 190 371 190 b 410 108 465 190 467 108 l 313 108 b 306 49 307 64 306 49 b 264 0 306 15 283 0 b 222 49 242 0 222 18 b 228 110 222 58 224 78 l 138 110 b 143 190 86 110 82 190 l 239 190 b 246 246 240 207 243 225 l 138 246 b 143 326 85 246 81 326 l 215 326 b 117 611 186 410 150 514 b 196 638 94 676 174 704 b 293 347 249 482 275 397 b 476 660 325 403 382 500 "},"≈":{"ha":785,"x_min":0,"x_max":0,"o":"m 260 561 b 489 503 354 561 394 503 b 607 533 539 503 572 514 b 650 464 668 567 697 494 b 488 419 614 440 561 419 b 268 478 382 419 336 478 b 150 433 239 478 203 476 b 107 503 100 392 53 457 b 260 561 156 543 204 561 m 260 394 b 489 336 354 394 394 336 b 606 367 539 336 571 347 b 649 297 667 400 696 328 b 488 253 613 274 561 253 b 268 311 382 253 336 311 b 150 267 239 311 203 310 b 107 336 100 225 53 290 b 260 394 156 376 204 394 "},"~":{"ha":771,"x_min":0,"x_max":0,"o":"m 267 486 b 496 428 361 486 401 428 b 614 458 546 428 579 439 b 657 389 675 492 704 419 b 494 344 621 365 568 344 b 275 403 389 344 343 403 b 157 358 246 403 210 401 b 114 428 107 317 60 382 b 267 486 163 468 211 486 "},"÷":{"ha":683,"x_min":0,"x_max":0,"o":"m 372 651 b 439 583 419 651 439 617 b 369 514 439 546 411 515 b 300 579 325 514 300 539 b 372 651 300 617 325 651 m 539 438 b 586 397 571 438 586 418 b 542 353 586 375 569 353 l 138 353 b 97 396 111 353 97 375 b 140 436 97 417 110 436 b 539 438 153 436 308 438 m 317 272 b 383 204 364 272 383 238 b 314 135 383 167 356 136 b 244 200 269 135 244 160 b 317 272 244 238 269 272 "},"=":{"ha":690,"x_min":0,"x_max":0,"o":"m 546 471 b 593 431 578 471 593 451 b 549 386 593 408 576 386 l 144 386 b 104 429 118 386 104 408 b 147 469 104 450 117 469 b 546 471 160 469 315 471 m 511 318 b 558 278 543 318 558 299 b 514 233 558 256 542 233 l 110 233 b 69 276 83 233 69 256 b 113 317 69 297 82 317 b 511 318 125 317 281 318 "},">":{"ha":571,"x_min":0,"x_max":0,"o":"m 475 431 b 472 324 519 396 504 353 b 179 68 417 274 283 157 b 122 129 131 26 75 89 b 407 375 244 233 364 338 b 122 581 332 431 188 535 b 164 651 67 618 118 682 b 475 431 238 603 440 457 "},"≥":{"ha":697,"x_min":0,"x_max":0,"o":"m 203 575 b 243 647 142 610 190 675 b 553 474 357 589 517 497 b 551 369 604 439 589 393 b 251 182 474 319 383 261 b 200 247 193 147 149 214 b 476 425 336 336 425 393 b 203 575 406 465 315 511 m 553 129 b 600 89 585 129 600 110 b 556 46 600 67 583 46 l 125 46 b 83 88 99 46 83 67 b 128 128 83 108 97 128 b 553 129 139 128 319 129 "},"<":{"ha":599,"x_min":0,"x_max":0,"o":"m 478 133 b 436 63 533 96 482 32 b 125 283 363 111 160 257 b 128 390 81 318 96 361 b 421 646 183 440 317 557 b 478 585 469 688 525 625 b 193 339 356 481 236 376 b 478 133 268 283 413 179 "},"≤":{"ha":683,"x_min":0,"x_max":0,"o":"m 131 353 b 132 457 79 388 94 433 b 432 644 210 507 300 565 b 483 579 490 679 535 613 b 207 401 347 490 258 433 b 481 251 278 361 368 315 b 440 179 542 217 493 151 b 131 353 326 238 167 329 m 543 128 b 588 88 574 128 588 108 b 546 46 588 67 572 46 l 115 46 b 71 89 88 46 71 67 b 118 129 71 110 86 129 b 543 128 349 129 531 128 "},"−":{"ha":628,"x_min":0,"x_max":0,"o":"m 525 440 b 572 400 557 440 572 421 b 528 356 572 378 556 356 l 124 356 b 83 399 97 356 83 378 b 126 439 83 419 96 439 b 525 440 139 439 294 440 "},"×":{"ha":532,"x_min":0,"x_max":0,"o":"m 431 258 b 376 194 481 210 422 151 b 274 296 347 222 313 257 b 171 194 235 257 200 222 b 117 258 125 151 67 210 l 215 354 b 113 460 182 389 147 424 b 176 513 74 500 131 558 b 274 414 193 496 222 467 l 371 513 b 435 460 417 558 474 500 l 333 356 b 431 258 361 328 393 296 "},"≠":{"ha":690,"x_min":0,"x_max":0,"o":"m 397 386 b 365 318 386 363 375 339 l 522 318 b 569 278 554 318 569 299 b 525 233 569 256 553 233 l 325 233 b 226 29 297 175 268 114 b 151 63 200 -24 121 4 l 233 233 b 121 233 192 233 153 233 b 81 276 94 233 81 256 b 124 317 81 297 93 317 l 272 318 b 304 386 283 342 294 364 l 156 386 b 115 429 129 386 115 408 b 158 469 115 450 128 469 l 343 471 b 440 678 371 531 400 593 b 489 713 451 703 471 713 b 517 642 518 713 536 685 l 436 471 b 557 471 474 471 514 471 b 604 431 589 471 604 451 b 560 386 604 408 588 386 "},"%":{"ha":833,"x_min":0,"x_max":0,"o":"m 557 669 b 632 622 597 731 675 690 b 240 17 481 382 419 294 b 167 56 201 -44 119 -15 b 557 669 311 275 397 431 m 204 686 b 349 547 297 686 349 619 b 196 397 349 447 268 397 b 60 539 124 397 60 443 b 204 686 60 619 117 686 m 204 604 b 143 542 168 604 143 579 b 203 479 143 510 157 479 b 265 544 243 479 265 514 b 204 604 265 571 249 604 m 589 290 b 733 151 682 290 733 224 b 581 1 733 51 653 1 b 444 143 508 1 444 47 b 589 290 444 224 501 290 m 589 208 b 528 146 553 208 528 183 b 588 83 528 114 542 83 b 650 149 628 83 650 118 b 589 208 650 175 633 208 "},"+":{"ha":692,"x_min":0,"x_max":0,"o":"m 589 400 b 636 360 621 400 636 381 b 592 315 636 338 619 315 l 388 315 b 358 131 378 242 367 178 b 315 86 353 100 335 86 b 275 131 294 86 272 104 b 300 315 279 158 288 229 l 138 315 b 97 358 111 315 97 338 b 140 399 97 379 110 399 l 313 400 b 342 572 321 457 332 518 b 385 613 346 597 364 613 b 425 565 406 613 429 596 l 400 400 b 589 400 458 400 522 400 "},"|":{"ha":315,"x_min":0,"x_max":0,"o":"m 200 928 b 197 24 200 779 197 189 b 111 21 197 -46 111 -46 b 114 926 111 33 114 669 b 200 928 114 994 200 993 "},"@":{"ha":1157,"x_min":0,"x_max":0,"o":"m 635 856 b 1060 433 964 856 1060 581 b 796 -7 1060 136 896 -7 b 665 143 742 -7 682 15 b 492 -1 626 65 572 -1 b 340 217 390 -1 340 89 b 592 663 340 431 428 663 b 719 564 657 663 700 619 b 735 611 724 581 729 596 b 783 654 744 640 764 654 b 818 585 808 654 832 628 b 744 196 758 399 744 272 b 796 67 744 90 771 67 b 975 418 835 67 975 164 b 642 772 975 614 860 772 b 188 289 344 772 213 532 b 488 -119 167 94 239 -106 b 468 -197 542 -122 551 -201 b 100 275 194 -181 81 39 b 635 856 125 590 313 856 m 492 74 b 671 358 557 74 642 218 l 674 371 b 638 397 653 367 632 374 b 592 586 665 507 644 586 b 425 238 493 586 425 372 b 492 74 425 117 454 74 "},"&":{"ha":693,"x_min":0,"x_max":0,"o":"m 596 65 b 533 10 642 10 567 -32 l 479 78 b 283 1 431 31 364 1 b 56 214 163 1 56 71 b 219 454 56 329 133 397 b 139 644 178 526 147 594 b 335 865 114 799 233 865 b 518 686 422 865 518 806 b 332 429 518 563 426 492 b 472 224 376 358 425 288 b 489 322 483 256 489 289 b 482 376 489 340 486 360 b 561 392 469 425 538 454 b 574 311 568 372 574 343 b 532 146 574 253 558 194 b 596 65 557 114 579 86 m 225 643 b 290 500 238 601 261 553 b 433 683 367 550 433 601 b 333 782 433 743 385 782 b 225 643 269 782 194 743 m 288 88 b 426 147 347 88 393 111 b 263 382 374 217 314 300 b 140 214 194 335 140 286 b 288 88 140 132 199 88 "},"©":{"ha":871,"x_min":0,"x_max":0,"o":"m 442 1038 b 768 697 639 1038 768 888 b 424 342 768 494 607 342 b 107 679 240 342 107 454 b 442 1038 107 879 236 1038 m 444 953 b 193 669 265 953 193 817 b 422 426 193 567 236 426 b 676 697 550 426 676 525 b 444 953 676 867 574 953 m 461 885 b 574 724 558 885 600 796 b 497 744 560 688 486 703 b 456 804 508 786 482 804 b 371 671 407 804 371 738 b 429 592 371 614 390 592 b 493 639 446 592 476 603 b 560 601 514 686 582 657 b 421 507 536 542 482 507 b 288 663 338 507 288 572 b 461 885 288 768 344 885 "},"®":{"ha":872,"x_min":0,"x_max":0,"o":"m 442 1038 b 768 697 639 1038 768 888 b 424 342 768 494 607 342 b 107 679 240 342 107 454 b 442 1038 107 879 236 1038 m 422 426 b 676 697 550 426 676 525 b 444 953 676 867 574 953 b 193 669 265 953 193 817 b 422 426 193 567 236 426 m 582 776 b 474 650 582 715 558 664 l 547 553 b 478 508 578 513 514 458 b 381 646 432 569 406 608 l 374 529 b 292 538 371 479 286 472 b 311 813 306 710 303 725 b 429 901 318 892 393 901 b 582 776 507 901 582 857 m 386 721 b 499 771 432 715 499 725 b 393 819 499 836 393 819 "},"§":{"ha":597,"x_min":0,"x_max":0,"o":"m 338 617 b 229 538 276 617 229 594 b 496 228 229 404 496 415 b 393 99 496 163 454 117 b 461 -36 433 67 461 31 b 275 -206 461 -147 368 -206 b 79 -112 186 -206 124 -176 b 146 -61 50 -71 90 -1 b 272 -121 181 -99 215 -121 b 375 -37 318 -121 375 -97 b 232 104 375 36 300 65 b 113 274 171 139 113 179 b 210 406 113 349 154 392 b 143 538 174 435 143 469 b 342 700 143 643 235 700 b 501 660 397 700 456 689 b 457 588 553 625 522 556 b 338 617 418 607 375 617 m 274 340 b 200 274 233 340 200 319 b 281 172 200 228 235 192 b 410 231 324 154 408 167 b 274 340 410 294 333 340 "},"™":{"ha":1000,"x_min":0,"x_max":0,"o":"m 942 1022 b 944 1003 943 1017 944 1010 b 925 646 944 990 936 868 b 849 643 922 593 849 594 b 864 921 849 686 857 819 b 767 828 829 886 793 851 b 721 826 753 815 732 817 l 715 829 b 622 926 689 850 656 886 b 607 649 618 865 613 771 b 531 647 606 597 531 597 b 551 1022 531 704 544 940 b 593 1057 554 1047 574 1058 b 624 1040 603 1056 613 1051 b 746 896 632 1032 674 968 b 875 1035 821 975 865 1026 b 942 1022 906 1065 938 1049 m 447 1047 b 450 974 515 1049 499 981 b 301 967 425 969 367 968 b 282 631 299 918 290 803 b 203 629 278 578 203 579 b 222 967 203 694 214 871 b 75 972 163 968 107 969 b 85 1046 25 976 26 1046 b 447 1047 97 1046 225 1039 "},"°":{"ha":489,"x_min":0,"x_max":0,"o":"m 254 710 b 392 576 343 711 392 646 b 249 435 392 483 315 435 b 119 571 179 435 119 482 b 254 710 119 647 172 707 m 254 629 b 200 576 229 629 200 613 b 254 519 200 542 215 519 b 308 575 278 519 308 536 b 254 629 308 606 286 629 "}}}
